<svg id="Layer_1" data-name="Layer 1" xmlns="http://www.w3.org/2000/svg" width="140.63" height="150" viewBox="0 0 140.63 150"><defs><style>.cls-1{fill:#b9bbc1}.cls-2{fill:#d8dce1}.cls-3{fill:#5c546a}.cls-4{fill:#8b8996}.cls-5{fill:#ffd200}.cls-6{fill:#ff9600}</style></defs><title>step-2</title><path class="cls-1" d="M309.71 337.87H206.59a4.69 4.69 0 0 0-4.69 4.69v131.25a4.69 4.69 0 0 0 4.69 4.69h103.12a4.69 4.69 0 0 0 4.69-4.69V342.56a4.69 4.69 0 0 0-4.69-4.69z" transform="translate(-192.53 -337.87)"/><path class="cls-2" d="M300.34 347.25H197.21a4.69 4.69 0 0 0-4.69 4.69v131.25a4.69 4.69 0 0 0 4.69 4.69h103.13a4.69 4.69 0 0 0 4.69-4.69V351.94a4.69 4.69 0 0 0-4.69-4.69z" transform="translate(-192.53 -337.87)"/><path class="cls-3" d="M283.93 373h-75a2.34 2.34 0 1 1 0-4.69h75a2.34 2.34 0 0 1 0 4.69z" transform="translate(-192.53 -337.87)"/><path class="cls-4" d="M283.93 401.16h-75a2.34 2.34 0 1 1 0-4.69h75a2.34 2.34 0 0 1 0 4.69z" transform="translate(-192.53 -337.87)"/><path class="cls-1" d="M283.93 466.78h-75a2.34 2.34 0 1 1 0-4.69h75a2.34 2.34 0 0 1 0 4.69z" transform="translate(-192.53 -337.87)"/><path class="cls-4" d="M283.93 429.28h-75a2.34 2.34 0 1 1 0-4.69h75a2.34 2.34 0 0 1 0 4.69z" transform="translate(-192.53 -337.87)"/><path class="cls-3" d="M227.68 382.41h-18.75a2.34 2.34 0 1 1 0-4.69h18.75a2.34 2.34 0 0 1 0 4.69zM283.93 382.41h-46.87a2.34 2.34 0 1 1 0-4.69h46.88a2.34 2.34 0 0 1-.01 4.69z" transform="translate(-192.53 -337.87)"/><path class="cls-4" d="M265.18 391.78h-56.25a2.34 2.34 0 1 1 0-4.69h56.25a2.34 2.34 0 0 1 0 4.69zM283.93 391.78h-9.37a2.34 2.34 0 0 1 0-4.69h9.38a2.34 2.34 0 0 1-.01 4.69z" transform="translate(-192.53 -337.87)"/><path class="cls-1" d="M283.93 457.41h-75a2.34 2.34 0 1 1 0-4.69h75a2.34 2.34 0 0 1 0 4.69z" transform="translate(-192.53 -337.87)"/><path class="cls-4" d="M227.68 438.66h-18.75a2.34 2.34 0 1 1 0-4.69h18.75a2.34 2.34 0 0 1 0 4.69z" transform="translate(-192.53 -337.87)"/><path class="cls-1" d="M283.93 438.66h-46.87a2.34 2.34 0 1 1 0-4.69h46.88a2.34 2.34 0 0 1-.01 4.69zM265.18 448h-56.25a2.34 2.34 0 1 1 0-4.69h56.25a2.34 2.34 0 0 1 0 4.69zM283.93 448h-9.37a2.34 2.34 0 0 1 0-4.69h9.38a2.34 2.34 0 0 1-.01 4.69z" transform="translate(-192.53 -337.87)"/><path class="cls-4" d="M239.4 410.53h-30.47a2.34 2.34 0 1 1 0-4.69h30.47a2.34 2.34 0 0 1 0 4.69zM283.93 410.53h-35.15a2.34 2.34 0 1 1 0-4.69h35.16a2.34 2.34 0 0 1-.01 4.69zM258.15 419.91h-49.22a2.34 2.34 0 1 1 0-4.69h49.22a2.34 2.34 0 0 1 0 4.69zM283.93 419.91h-16.4a2.34 2.34 0 0 1 0-4.69h16.41a2.34 2.34 0 0 1-.01 4.69z" transform="translate(-192.53 -337.87)"/><g><path class="cls-4" d="M319.09 469.12l4.79 16a2.34 2.34 0 0 0 4.49 0l4.79-16h-14.07z" transform="translate(-192.53 -337.87)"/><circle class="cls-4" cx="133.59" cy="51.56" r="7.03"/><path class="cls-5" d="M126.56 51.56h14.06v79.69h-14.06z"/><path class="cls-6" d="M126.56 51.56h7.03v79.69h-7.03z"/><path class="cls-3" d="M321.9 478.5l2 6.58a2.34 2.34 0 0 0 4.49 0l2-6.58h-8.49z" transform="translate(-192.53 -337.87)"/></g></svg>