<svg id="Layer_1" data-name="Layer 1" xmlns="http://www.w3.org/2000/svg" width="160" height="150" viewBox="0 0 160 150"><defs><style>.cls-1{fill:#fff}.cls-2{fill:#b9bbc1}.cls-3{fill:#ff4f19}.cls-4{fill:#ffd200}.cls-5{fill:#00e68c}.cls-6{fill:#5c546a}.cls-7{fill:#e9001e}.cls-8{fill:#8b8996}.cls-9{fill:#00abff}</style></defs><title>step-2</title><path class="cls-1" d="M860.66 166h-145a7.51 7.51 0 0 0-7.5 7.5v135a7.51 7.51 0 0 0 7.5 7.5h145a7.51 7.51 0 0 0 7.5-7.5v-135a7.51 7.51 0 0 0-7.5-7.5z" transform="translate(-708.16 -166)"/><path class="cls-2" d="M860.66 166h-145a7.51 7.51 0 0 0-7.5 7.5v135a7.51 7.51 0 0 0 7.5 7.5h145a7.51 7.51 0 0 0 7.5-7.5v-135a7.51 7.51 0 0 0-7.5-7.5zm2.5 142.5a2.5 2.5 0 0 1-2.5 2.5h-145a2.5 2.5 0 0 1-2.5-2.5v-120a2.5 2.5 0 0 1 2.5-2.5h145a2.5 2.5 0 0 1 2.5 2.5v120z" transform="translate(-708.16 -166)"/><path class="cls-3" d="M718.16 178.5a2.58 2.58 0 0 1-1.78-.72 2.54 2.54 0 1 1 1.78.72z" transform="translate(-708.16 -166)"/><path class="cls-4" d="M725.66 178.5a2.63 2.63 0 0 1-1.78-.72 2.58 2.58 0 0 1-.72-1.78 2.51 2.51 0 1 1 2.5 2.5z" transform="translate(-708.16 -166)"/><path class="cls-5" d="M733.16 178.5a2.48 2.48 0 0 1-2.5-2.5 2.53 2.53 0 0 1 .72-1.78 2.62 2.62 0 0 1 3.55 0 2.54 2.54 0 0 1 .73 1.78 2.48 2.48 0 0 1-2.5 2.5z" transform="translate(-708.16 -166)"/><path class="cls-6" d="M760.66 291h-35a2.5 2.5 0 0 1 0-5h35a2.5 2.5 0 0 1 0 5zM805.66 291h-35a2.5 2.5 0 0 1 0-5h35a2.5 2.5 0 0 1 0 5zM850.66 291h-35a2.5 2.5 0 0 1 0-5h35a2.5 2.5 0 0 1 0 5z" transform="translate(-708.16 -166)"/><path class="cls-2" d="M833.16 301h-17.5a2.5 2.5 0 0 1 0-5h17.5a2.5 2.5 0 0 1 0 5zM788.16 301h-17.5a2.5 2.5 0 0 1 0-5h17.5a2.5 2.5 0 0 1 0 5zM743.16 301h-17.5a2.5 2.5 0 0 1 0-5h17.5a2.5 2.5 0 0 1 0 5z" transform="translate(-708.16 -166)"/><path class="cls-3" d="M813.16 201h-22.5a2.5 2.5 0 0 1 0-5h22.5a2.5 2.5 0 0 1 0 5z" transform="translate(-708.16 -166)"/><path class="cls-7" d="M850.66 211h-60a2.5 2.5 0 0 1 0-5h60a2.5 2.5 0 1 1 0 5z" transform="translate(-708.16 -166)"/><path class="cls-2" d="M850.66 226h-47.5a2.5 2.5 0 0 1 0-5h47.5a2.5 2.5 0 1 1 0 5zM850.66 236h-47.5a2.5 2.5 0 0 1 0-5h47.5a2.5 2.5 0 1 1 0 5zM850.66 246h-47.5a2.5 2.5 0 0 1 0-5h47.5a2.5 2.5 0 1 1 0 5z" transform="translate(-708.16 -166)"/><path class="cls-4" d="M793.16 226h-2.5a2.5 2.5 0 0 1 0-5h2.5a2.5 2.5 0 0 1 0 5zM793.16 236h-2.5a2.5 2.5 0 0 1 0-5h2.5a2.5 2.5 0 1 1 0 5zM793.16 246h-2.5a2.5 2.5 0 0 1 0-5h2.5a2.5 2.5 0 1 1 0 5z" transform="translate(-708.16 -166)"/><path class="cls-8" d="M765.66 243.5h-22.5a2.5 2.5 0 0 1 0-5h22.5a2.5 2.5 0 0 1 0 5z" transform="translate(-708.16 -166)"/><path class="cls-8" d="M740.66 243.5a2.5 2.5 0 0 1-2.14-3.79l7.5-12.5a2.5 2.5 0 1 1 4.29 2.57l-7.5 12.5a2.5 2.5 0 0 1-2.15 1.22z" transform="translate(-708.16 -166)"/><circle class="cls-6" cx="60" cy="75" r="5"/><circle class="cls-6" cx="32.5" cy="75" r="5"/><path class="cls-2" d="M765.66 231h-15.2a10 10 0 0 1-9.08-5.81L729.06 201h-3.4a2.5 2.5 0 0 1 0-5h3.4a7.58 7.58 0 0 1 3.84 1.4l1.77 3.6h38.49a2.5 2.5 0 0 1 2.5 2.5V221a10 10 0 0 1-10 10z" transform="translate(-708.16 -166)"/><path class="cls-8" d="M730.66 201h-5a2.5 2.5 0 0 1-2.5-2.5 2.5 2.5 0 0 1 2.5-2.5h5a2.5 2.5 0 0 1 2.5 2.5 2.5 2.5 0 0 1-2.5 2.5z" transform="translate(-708.16 -166)"/><path class="cls-5" d="M760.66 256h-35a2.5 2.5 0 0 0-2.5 2.5v20a2.5 2.5 0 0 0 2.5 2.5h35a2.5 2.5 0 0 0 2.5-2.5v-20a2.5 2.5 0 0 0-2.5-2.5z" transform="translate(-708.16 -166)"/><path class="cls-3" d="M805.66 256h-35a2.5 2.5 0 0 0-2.5 2.5v20a2.5 2.5 0 0 0 2.5 2.5h35a2.5 2.5 0 0 0 2.5-2.5v-20a2.5 2.5 0 0 0-2.5-2.5z" transform="translate(-708.16 -166)"/><path class="cls-9" d="M850.66 256h-35a2.5 2.5 0 0 0-2.5 2.5v20a2.5 2.5 0 0 0 2.5 2.5h35a2.5 2.5 0 0 0 2.5-2.5v-20a2.5 2.5 0 0 0-2.5-2.5z" transform="translate(-708.16 -166)"/></svg>