<svg id="Layer_1" data-name="Layer 1" xmlns="http://www.w3.org/2000/svg" width="200" height="156.25" viewBox="0 0 200 156.25"><defs><style>.cls-1{fill:#ff4f19}.cls-2{fill:#fdc88e}.cls-3{fill:#ffb980}.cls-4{fill:#ffe1b2}.cls-5{fill:#7e5449}.cls-6{fill:#d8dce1}.cls-7{fill:#9f6459}.cls-8{fill:#fff}</style></defs><title>step-1</title><path class="cls-1" d="M918.55 464.75l-7.09-42.42c-1-5.74-4.93-11.68-11.64-13.56l-.25-.05-16.57-2.47h-.42a2.07 2.07 0 0 0-2.06 1.82c-.88 7.15-6.79 12.76-14.39 14.29h-8.3c-7.61-1.54-13.52-7.15-14.39-14.29a2.07 2.07 0 0 0-2.11-1.82 1.76 1.76 0 0 0-.37 0l-16.53 2.48-.25.05c-6.71 1.88-10.66 7.82-11.64 13.56l-7.09 42.42a12.5 12.5 0 0 0 12.28 14.84h88.54a12.5 12.5 0 0 0 12.28-14.85z" transform="translate(-762 -329.59)"/><path class="cls-2" d="M862 404.15a25.85 25.85 0 0 1-18.64-8.15 47.91 47.91 0 0 1-.91 10.51 2.06 2.06 0 0 1 1 1.5c1 8.41 9 14.75 18.54 14.75s17.51-6.34 18.54-14.75a2 2 0 0 1 1-1.5 47.92 47.92 0 0 1-.91-10.51 25.85 25.85 0 0 1-18.62 8.15z" transform="translate(-762 -329.59)"/><path class="cls-3" d="M880.24 396.41a25.4 25.4 0 0 1-36.88-.38 47.91 47.91 0 0 1-.91 10.51 2.06 2.06 0 0 1 1 1.5 15.75 15.75 0 0 0 5 9.57c12.45-1.76 26.61-14.07 31.79-21.2z" transform="translate(-762 -329.59)"/><path class="cls-4" d="M880.64 352.38h-35.21a10.37 10.37 0 0 0-10.36 10.36v12.43c0 16 12.08 29 26.92 29s26.92-13 26.92-29v-14.5a8.29 8.29 0 0 0-8.27-8.29z" transform="translate(-762 -329.59)"/><path class="cls-5" d="M876.5 329.59h-26.93a8.3 8.3 0 0 0-8.05 6.33 14.52 14.52 0 0 0-12.66 14.38v10.36a18.53 18.53 0 0 0 6.21 13.86v-11.79a10.37 10.37 0 0 1 10.36-10.36h35.21a8.29 8.29 0 0 1 8.28 8.28v13.85a18.53 18.53 0 0 0 6.21-13.85v-12.42a18.66 18.66 0 0 0-18.63-18.64z" transform="translate(-762 -329.59)"/><path class="cls-6" d="M899.5 479.59h-75a3.13 3.13 0 0 1-3.12-3.12v-40.63a3.13 3.13 0 0 1 3.13-3.12h75a3.13 3.13 0 0 1 3.13 3.13v40.63a3.13 3.13 0 0 1-3.14 3.11z" transform="translate(-762 -329.59)"/><path class="cls-7" d="M958.87 485.84H765.12a3.12 3.12 0 0 1 0-6.25h193.75a3.13 3.13 0 0 1 0 6.25z" transform="translate(-762 -329.59)"/><circle class="cls-8" cx="100" cy="128.13" r="6.25"/></svg>